<svg xmlns="http://www.w3.org/2000/svg" viewBox="0 0 64 64">
  <rect width="64" height="64" rx="14" fill="#b53740"/>
  <path d="M37.8 13.5c7.8 4.2 12.7 12.3 11.6 21.1-1.5 12.1-13.4 20.7-25.3 16.6-8.5-2.9-13.1-11.9-10.5-20.4 2.3-7.5 9.8-12.1 17.5-10.9 5.5.9 9.1 6.1 8 11.5-.8 4.3-5 7.2-9.4 6.5-3.2-.5-5.3-3.5-4.8-6.7" fill="none" stroke="#fff" stroke-width="5" stroke-linecap="round"/>
  <path d="M34.5 15.2c3.1-5 8.6-7.6 14.1-6.8-.8 5.5-4.5 10.1-9.8 11.8" fill="none" stroke="#dce8ba" stroke-width="4" stroke-linecap="round" stroke-linejoin="round"/>
</svg>
